Coordinates
nRows=318
nColumns=2
inDegrees=yes
endheader
time	ankle_angle_r	
2.66112	  0.228803	
2.69438	  0.218045	
2.72765	  0.220576	
2.76091	  0.228566	
2.79418	  0.232422	
2.82744	  0.237048	
2.8607	  0.247169	
2.89397	  0.262256	
2.92723	  0.280592	
2.9605	  0.294814	
2.99376	  0.300513	
3.02702	  0.301418	
3.06029	  0.298819	
3.09355	  0.295193	
3.12682	  0.297905	
3.16008	  0.306912	
3.19334	  0.315034	
3.22661	  0.317601	
3.25987	  0.313870	
3.29314	  0.305044	
3.3264	  0.288592	
3.35966	  0.263718	
3.39293	  0.243059	
3.42619	  0.236603	
3.45946	  0.238601	
3.49272	  0.244022	
3.52598	  0.249383	
3.55925	  0.245338	
3.59251	  0.232356	
3.62578	  0.220718	
3.65904	  0.212545	
3.6923	  0.206515	
3.72557	  0.204368	
3.75883	  0.203900	
3.7921	  0.202644	
3.82536	  0.200583	
3.85862	  0.196076	
3.89189	  0.191990	
3.92515	  0.192991	
3.95842	  0.196144	
3.99168	  0.199282	
4.02494	  0.203806	
4.05821	  0.210064	
4.09147	  0.220517	
4.12474	  0.232335	
4.158	  0.238195	
4.19126	  0.240695	
4.22453	  0.245481	
4.25779	  0.252727	
4.29106	  0.260018	
4.32432	  0.260325	
4.35758	  0.251211	
4.39085	  0.242403	
4.42411	  0.239697	
4.45738	  0.239162	
4.49064	  0.237658	
4.5239	  0.233160	
4.55717	  0.227255	
4.59043	  0.226490	
4.6237	  0.229800	
4.65696	  0.232111	
4.69022	  0.235306	
4.72349	  0.236924	
4.75675	  0.230060	
4.79002	  0.220043	
4.82328	  0.217412	
4.85654	  0.224159	
4.88981	  0.236337	
4.92307	  0.245583	
4.95634	  0.246157	
4.9896	  0.244579	
5.02286	  0.247392	
5.05613	  0.252346	
5.08939	  0.257905	
5.12266	  0.262652	
5.15592	  0.263636	
5.18918	  0.261813	
5.22245	  0.258187	
5.25571	  0.254391	
5.28898	  0.254136	
5.32224	  0.255632	
5.3555	  0.258005	
5.38877	  0.264182	
5.42203	  0.270174	
5.4553	  0.272119	
5.48856	  0.270463	
5.52182	  0.263439	
5.55509	  0.255712	
5.58835	  0.253671	
5.62162	  0.249802	
5.65488	  0.236533	
5.68814	  0.218491	
5.72141	  0.202557	
5.75467	  0.195294	
5.78794	  0.198773	
5.8212	  0.205281	
5.85446	  0.210131	
5.88773	  0.214154	
5.92099	  0.215276	
5.95426	  0.215946	
5.98752	  0.219379	
6.02078	  0.218287	
6.05405	  0.210475	
6.08731	  0.205391	
6.12058	  0.206185	
6.15384	  0.209215	
6.1871	  0.211799	
6.22037	  0.211033	
6.25363	  0.211137	
6.2869	  0.219779	
6.32016	  0.231092	
6.35342	  0.236378	
6.38669	  0.240431	
6.41995	  0.250769	
6.45322	  0.266663	
6.48648	  0.278435	
6.51974	  0.275714	
6.55301	  0.262834	
6.58627	  0.253620	
6.61954	  0.253471	
6.6528	  0.257569	
6.68606	  0.258034	
6.71933	  0.252818	
6.75259	  0.246602	
6.78586	  0.240141	
6.81912	  0.231971	
6.85238	  0.223817	
6.88565	  0.215502	
6.91891	  0.207451	
6.95218	  0.199924	
6.98544	  0.185854	
7.0187	  0.163963	
7.05197	  0.145516	
7.08523	  0.134553	
7.1185	  0.126709	
7.15176	  0.122620	
7.18502	  0.121649	
7.21829	  0.121312	
7.25155	  0.123871	
7.28482	  0.127430	
7.31808	  0.126415	
7.35134	  0.121016	
7.38461	  0.112555	
7.41787	  0.104965	
7.45114	  0.107553	
7.4844	  0.118333	
7.51766	  0.126053	
7.55093	  0.130941	
7.58419	  0.136748	
7.61746	  0.141451	
7.65072	  0.147892	
7.68398	  0.158557	
7.71725	  0.167861	
7.75051	  0.172436	
7.78378	  0.175726	
7.81704	  0.182492	
7.8503	  0.194313	
7.88357	  0.209705	
7.91683	  0.227758	
7.9501	  0.245599	
7.98336	  0.259268	
8.01662	  0.271917	
8.04989	  0.286194	
8.08315	  0.297151	
8.11642	  0.303878	
8.14968	  0.309477	
8.18294	  0.312405	
8.21621	  0.312473	
8.24947	  0.312423	
8.28274	  0.312571	
8.316	  0.313687	
8.34926	  0.314615	
8.38253	  0.311413	
8.41579	  0.306651	
8.44906	  0.301797	
8.48232	  0.288400	
8.51558	  0.265675	
8.54885	  0.244251	
8.58211	  0.228255	
8.61538	  0.218818	
8.64864	  0.218932	
8.6819	  0.221738	
8.71517	  0.218887	
8.74843	  0.213405	
8.7817	  0.209632	
8.81496	  0.207840	
8.84822	  0.206994	
8.88149	  0.203879	
8.91475	  0.198543	
8.94802	  0.194670	
8.98128	  0.192963	
9.01454	  0.195250	
9.04781	  0.202703	
9.08107	  0.208188	
9.11434	  0.205310	
9.1476	  0.195428	
9.18086	  0.183548	
9.21413	  0.174867	
9.24739	  0.172842	
9.28066	  0.181157	
9.31392	  0.197915	
9.34718	  0.211476	
9.38045	  0.218055	
9.41371	  0.224416	
9.44698	  0.228878	
9.48024	  0.227744	
9.5135	  0.226379	
9.54677	  0.226049	
9.58003	  0.225091	
9.6133	  0.228404	
9.64656	  0.235908	
9.67982	  0.241880	
9.71309	  0.245840	
9.74635	  0.246432	
9.77962	  0.242272	
9.81288	  0.239744	
9.84614	  0.240811	
9.87941	  0.240915	
9.91267	  0.243119	
9.94594	  0.249391	
9.9792	  0.252449	
10.0125	  0.249863	
10.0457	  0.245682	
10.079	  0.243705	
10.1123	  0.246553	
10.1455	  0.249106	
10.1788	  0.245673	
10.212	  0.244193	
10.2453	  0.251642	
10.2786	  0.261664	
10.3118	  0.267578	
10.3451	  0.268467	
10.3784	  0.268083	
10.4116	  0.271945	
10.4449	  0.278964	
10.4782	  0.285290	
10.5114	  0.291417	
10.5447	  0.299300	
10.578	  0.310137	
10.6112	  0.319961	
10.6445	  0.320727	
10.6777	  0.312394	
10.711	  0.300208	
10.7443	  0.285526	
10.7775	  0.270495	
10.8108	  0.255410	
10.8441	  0.236591	
10.8773	  0.218201	
10.9106	  0.206984	
10.9439	  0.201200	
10.9771	  0.199279	
11.0104	  0.201181	
11.0436	  0.202342	
11.0769	  0.201915	
11.1102	  0.203111	
11.1434	  0.203690	
11.1767	  0.203467	
11.21	  0.206580	
11.2432	  0.209391	
11.2765	  0.207560	
11.3098	  0.205711	
11.343	  0.207498	
11.3763	  0.212596	
11.4096	  0.221725	
11.4428	  0.234025	
11.4761	  0.246868	
11.5093	  0.256593	
11.5426	  0.259197	
11.5759	  0.257809	
11.6091	  0.257552	
11.6424	  0.256033	
11.6757	  0.253301	
11.7089	  0.254234	
11.7422	  0.258329	
11.7755	  0.260138	
11.8087	  0.253177	
11.842	  0.238324	
11.8752	  0.226621	
11.9085	  0.222166	
11.9418	  0.220771	
11.975	  0.223495	
12.0083	  0.230400	
12.0416	  0.236137	
12.0748	  0.235392	
12.1081	  0.222531	
12.1414	  0.200352	
12.1746	  0.183164	
12.2079	  0.176579	
12.2412	  0.173055	
12.2744	  0.166939	
12.3077	  0.155475	
12.3409	  0.140110	
12.3742	  0.129951	
12.4075	  0.128539	
12.4407	  0.132017	
12.474	  0.139052	
12.5073	  0.143282	
12.5405	  0.136308	
12.5738	  0.124428	
12.6071	  0.117973	
12.6403	  0.117637	
12.6736	  0.122722	
12.7068	  0.130710	
12.7401	  0.135717	
12.7734	  0.137205	
12.8066	  0.135452	
12.8399	  0.130477	
12.8732	  0.130931	
12.9064	  0.144458	
12.9397	  0.167797	
12.973	  0.193693	
13.0062	  0.217500	
13.0395	  0.239141	
13.0728	  0.257119	
13.106	  0.267136	
13.1393	  0.274910	
13.1725	  0.292362	
13.2058	  0.320215	
